<?xml version="1.0" standalone="no"?>
<!DOCTYPE svg PUBLIC "-//W3C//DTD SVG 20010904//EN"
 "http://www.w3.org/TR/2001/REC-SVG-20010904/DTD/svg10.dtd">
<svg version="1.0" xmlns="http://www.w3.org/2000/svg"
 width="1184.000000pt" height="1184.000000pt" viewBox="0 0 1184.000000 1184.000000"
 preserveAspectRatio="xMidYMid meet">
<metadata>
Created by potrace 1.14, written by Peter Selinger 2001-2017
</metadata>
<g transform="translate(0.000000,1184.000000) scale(0.100000,-0.100000)"
fill="#000000" stroke="none">
<path d="M105 10059 c-22 -10 -53 -30 -70 -43 -29 -23 -30 -26 -29 -108 1 -45
28 -276 62 -513 56 -393 174 -1239 412 -2950 49 -352 148 -1063 220 -1580 72
-517 171 -1228 220 -1580 191 -1373 200 -1436 216 -1460 8 -13 31 -35 49 -49
l34 -26 4709 0 4709 0 27 21 c14 11 37 40 51 63 23 39 34 107 115 687 49 354
139 1002 200 1439 192 1383 327 2351 440 3160 235 1687 320 2302 345 2475 30
214 33 354 9 391 -9 14 -36 36 -59 50 -39 22 -49 24 -115 18 -59 -6 -78 -12
-101 -33 -25 -23 -454 -637 -2527 -3616 -321 -462 -596 -852 -609 -866 -29
-32 -101 -54 -140 -44 -15 3 -47 18 -69 33 -45 28 40 -121 -1284 2242 -902
1609 -865 1544 -900 1568 -56 38 -168 26 -212 -24 -9 -11 -142 -244 -296 -519
-153 -275 -553 -990 -887 -1590 -335 -599 -681 -1220 -770 -1380 l-161 -290
-54 -27 c-31 -16 -70 -28 -92 -28 -75 0 -98 25 -339 371 -530 760 -2532 3629
-2721 3899 -168 240 -213 299 -243 313 -46 22 -90 21 -140 -4z m6260 -4524
c466 -832 491 -875 586 -990 215 -263 551 -475 885 -559 391 -98 792 -58 1135
115 189 94 301 172 432 298 42 41 77 70 77 65 0 -5 -18 -178 -40 -384 -22
-206 -50 -471 -62 -587 l-22 -213 -3435 0 -3436 0 -83 573 c-46 314 -87 583
-90 597 -4 20 15 6 89 -64 241 -226 568 -385 904 -437 118 -19 369 -16 500 5
445 72 855 330 1120 706 29 41 216 365 415 720 595 1060 551 984 565 969 7 -8
214 -374 460 -814z"/>
</g>
</svg>
