<?xml version="1.0" encoding="utf-8"?>
<!-- Generator: Adobe Illustrator 25.0.1, SVG Export Plug-In . SVG Version: 6.00 Build 0)  -->
<svg version="1.1" id="Слой_1" xmlns="http://www.w3.org/2000/svg" xmlns:xlink="http://www.w3.org/1999/xlink" x="0px" y="0px"
	 viewBox="0 0 74.3 52.3" style="enable-background:new 0 0 74.3 52.3;" xml:space="preserve">
<style type="text/css">
	.st0{fill:#FFE600;}
</style>
<path class="st0" d="M72.4,0.4L52.9,28.4c-0.1,0.1-0.2,0.3-0.4,0.3c-0.2,0.1-0.3,0.1-0.5,0.1c-0.2,0-0.3-0.1-0.5-0.2
	c-0.2-0.1-0.3-0.2-0.4-0.4L38.1,5c-0.1-0.2-0.2-0.3-0.4-0.4c-0.2-0.1-0.3-0.1-0.5-0.1c-0.2,0-0.4,0.1-0.5,0.1
	c-0.2,0.1-0.3,0.2-0.4,0.4l-13,23.3c-0.1,0.2-0.2,0.3-0.4,0.4c-0.2,0.1-0.3,0.1-0.5,0.2c-0.2,0-0.4,0-0.5-0.1
	c-0.2-0.1-0.3-0.2-0.4-0.3L1.9,0.4C1.8,0.2,1.6,0.1,1.3,0C1.1,0,0.9,0,0.7,0.1C0.5,0.2,0.3,0.3,0.1,0.5C0,0.7,0,0.9,0,1.2l7,50.3
	c0,0.2,0.2,0.5,0.4,0.6c0.2,0.2,0.4,0.3,0.7,0.3h58.2c0.3,0,0.5-0.1,0.7-0.3c0.2-0.2,0.3-0.4,0.4-0.6l7-50.3c0-0.2,0-0.4-0.2-0.6
	c-0.1-0.2-0.3-0.3-0.5-0.4c-0.2-0.1-0.4-0.1-0.6,0C72.7,0.1,72.5,0.3,72.4,0.4z M58.7,42.7H15.6l-1.1-7.5c1,1.1,2.2,1.9,3.5,2.5
	c1.3,0.6,2.8,0.9,4.2,0.9c1.9,0,3.8-0.5,5.4-1.5c1.7-1,3-2.4,3.9-4l5.5-9.8l5.5,9.8c0.9,1.7,2.3,3.1,3.9,4c1.6,1,3.5,1.5,5.4,1.5
	c1.5,0,2.9-0.3,4.2-0.9c1.3-0.6,2.5-1.4,3.5-2.5L58.7,42.7z"/>
</svg>
