<svg width="180" height="53" viewBox="0 0 180 53" fill="none" xmlns="http://www.w3.org/2000/svg">
<path d="M90.3191 13.3979H95.2735C95.2735 14.7285 96.3237 15.4906 98.2644 15.4906C100.205 15.4906 101.118 14.865 101.118 13.7846C101.118 12.7041 99.9767 12.3288 97.6936 12.0785C92.4082 11.4985 90.5589 9.12146 90.5589 5.86867C90.5589 2.45666 93.6296 0 98.1388 0C102.648 0 105.73 2.53627 105.73 6.31224H100.856C100.856 5.09528 99.8625 4.37875 98.1959 4.37875C96.5292 4.37875 95.5931 5.01567 95.5931 6.03928C95.5931 7.06288 96.3123 7.49507 98.5611 7.72253C104.178 8.26846 106.278 10.4749 106.278 13.921C106.278 17.3672 103.07 19.9034 98.3671 19.9034C93.31 19.9034 90.3191 17.4354 90.3191 13.3979ZM121.369 15.0811V19.6305H109.303V0.295711H114.372V15.0811H121.369ZM122.511 9.95172C122.511 4.10579 126.712 0 132.671 0C138.63 0 142.819 4.10579 142.819 9.95172C142.819 15.7976 138.618 19.9034 132.671 19.9034C126.723 19.9034 122.568 15.7976 122.568 9.95172H122.511ZM137.648 9.95172C137.702 9.27797 137.612 8.6005 137.383 7.96408C137.155 7.32766 136.793 6.74677 136.323 6.2598C135.853 5.77283 135.284 5.39086 134.654 5.13915C134.025 4.88743 133.349 4.77169 132.671 4.79957C131.999 4.78153 131.33 4.90455 130.709 5.16064C130.088 5.41673 129.527 5.80016 129.064 6.28604C128.601 6.77191 128.246 7.34936 128.022 7.98089C127.798 8.61242 127.709 9.28389 127.762 9.95172C127.702 10.6286 127.787 11.3105 128.011 11.9522C128.236 12.5939 128.595 13.1806 129.064 13.6733C129.534 14.166 130.104 14.5535 130.735 14.81C131.367 15.0664 132.046 15.186 132.728 15.1607C133.411 15.1895 134.092 15.0725 134.726 14.8174C135.36 14.5623 135.932 14.1751 136.403 13.6818C136.875 13.1885 137.235 12.6004 137.459 11.9571C137.684 11.3137 137.767 10.63 137.705 9.95172H137.648ZM158.436 4.82232H153.755V19.6077H148.698V4.82232H144.018V0.272968H158.436V4.82232ZM159.577 9.95172C159.577 4.10579 163.789 0 169.737 0C175.684 0 179.897 4.10579 179.897 9.95172C179.897 15.7976 175.696 19.9034 169.737 19.9034C163.778 19.9034 159.726 15.7976 159.726 9.95172H159.577ZM174.726 9.95172C174.778 9.27739 174.686 8.5997 174.456 7.96327C174.226 7.32685 173.864 6.74615 173.393 6.25939C172.921 5.77263 172.352 5.39088 171.722 5.13926C171.092 4.88764 170.415 4.77187 169.737 4.79957C169.059 4.76984 168.382 4.88433 167.751 5.13541C167.121 5.38649 166.551 5.76841 166.081 6.25578C165.61 6.74315 165.248 7.3248 165.021 7.96206C164.793 8.59931 164.704 9.27756 164.76 9.95172C164.696 10.639 164.782 11.332 165.012 11.9829C165.243 12.6339 165.612 13.2273 166.095 13.7224C166.578 14.2175 167.163 14.6024 167.809 14.8507C168.456 15.099 169.148 15.2048 169.84 15.1607C170.523 15.1893 171.205 15.0722 171.839 14.8172C172.474 14.5623 173.046 14.1753 173.518 13.6822C173.991 13.1891 174.352 12.6012 174.578 11.9579C174.804 11.3145 174.889 10.6306 174.828 9.95172H174.726ZM113.264 52.2039V52.5678H106.073L101.438 42.5365C100.778 42.6055 100.115 42.6397 99.4516 42.6388H98.4812V52.5678H91.9059V27.5464H98.4812V36.8953H99.1319C103.63 36.8953 104.92 33.6766 104.92 27.5464H111.506C111.506 33.3809 110.365 37.7824 107.328 40.2959L113.264 52.2039ZM116.609 27.4895H123.196V52.5109H116.621L116.609 27.4895ZM150.331 27.4895V52.6929H147.671L134.977 39.8524L135.057 44.4017V52.6133H128.584V27.3871H131.244L143.972 39.7728L143.858 35.3371V27.4895H150.331ZM179.783 40.1822C179.783 47.882 174.851 52.9318 167.054 52.9318C159.646 52.9318 154.395 47.5976 154.395 40.0002C154.395 32.4028 159.646 27.0687 167.054 27.0687C173.162 27.0687 177.557 30.1509 179.098 35.7011H172.191C171.698 34.8685 170.976 34.1939 170.11 33.7566C169.244 33.3193 168.271 33.1377 167.305 33.2331C163.607 33.2331 161.118 35.9513 161.118 40.0571C161.118 44.1629 163.675 46.8811 167.488 46.8811C168.628 46.9326 169.757 46.6426 170.729 46.0486C171.702 45.4546 172.474 44.5839 172.945 43.5487H167.237V38.0212H179.634C179.703 38.7719 179.783 39.4884 179.783 40.1822ZM72.4082 1.09184L52.8648 29.0135C52.7624 29.1569 52.6253 29.2722 52.4663 29.3488C52.3073 29.4254 52.1314 29.4608 51.955 29.4517C51.7786 29.4427 51.6074 29.3894 51.4571 29.2969C51.3069 29.2044 51.1825 29.0756 51.0954 28.9225L38.0703 5.66395C37.9811 5.5001 37.8492 5.36327 37.6885 5.26792C37.5277 5.17258 37.3441 5.12224 37.157 5.12224C36.97 5.12224 36.7864 5.17258 36.6256 5.26792C36.4649 5.36327 36.333 5.5001 36.2438 5.66395L23.2187 28.9225C23.1316 29.0756 23.0072 29.2044 22.8569 29.2969C22.7067 29.3894 22.5354 29.4427 22.359 29.4517C22.1826 29.4608 22.0068 29.4254 21.8478 29.3488C21.6888 29.2722 21.5517 29.1569 21.4493 29.0135L1.90589 1.09184C1.7697 0.903139 1.57433 0.764982 1.35059 0.699166C1.12686 0.633351 0.887498 0.64363 0.670274 0.728374C0.45305 0.813117 0.270327 0.967504 0.150935 1.16718C0.0315426 1.36686 -0.0177225 1.60045 0.01091 1.83112L6.9858 52.1015C7.0215 52.3507 7.14619 52.5788 7.337 52.7438C7.5278 52.9088 7.77193 52.9998 8.02461 53H66.2438C66.4965 52.9998 66.7406 52.9088 66.9314 52.7438C67.1222 52.5788 67.2469 52.3507 67.2826 52.1015L74.2575 1.83112C74.2707 1.61191 74.2143 1.39413 74.0963 1.20863C73.9783 1.02313 73.8048 0.879313 73.6002 0.79754C73.3957 0.715766 73.1705 0.700178 72.9565 0.752999C72.7426 0.805821 72.5508 0.924367 72.4082 1.09184ZM58.7096 43.3326H15.5703L14.52 35.7921C15.5236 36.8439 16.7311 37.6816 18.0694 38.2545C19.4077 38.8273 20.8489 39.1233 22.3054 39.1245C24.2203 39.1241 26.1004 38.6148 27.7518 37.6492C29.4033 36.6836 30.7663 35.2965 31.7004 33.6311L37.157 23.8728L42.6251 33.6311C43.5573 35.2956 44.9183 36.6822 46.5678 37.6479C48.2173 38.6135 50.0955 39.1232 52.0086 39.1245C53.4652 39.1233 54.9064 38.8273 56.2447 38.2545C57.583 37.6816 58.7905 36.8439 59.794 35.7921L58.7096 43.3326Z" fill="#FFE600"/>
</svg>
